<svg width="44" height="44" viewBox="0 0 44 44" fill="none" xmlns="http://www.w3.org/2000/svg">
<g clip-path="url(#clip0_1_298)">
<path d="M26.8124 36.1071C21.7526 36.1071 17.6487 32.0032 17.6487 26.9433C17.6487 21.8834 21.7526 17.7795 26.8124 17.7795C31.8723 17.7795 35.9762 21.8834 35.9762 26.9433C35.9879 32.0032 31.8723 36.1071 26.8124 36.1071ZM39.9868 35.6873C44.8135 28.4123 42.8315 18.5957 35.5565 13.769C28.2814 8.94224 18.4648 10.9242 13.6381 18.1993C8.81138 25.4743 10.7934 35.2909 18.0684 40.1177C23.3615 43.6386 30.2518 43.6386 35.5565 40.1177L38.8209 43.3821L43.8808 39.593L39.9868 35.6873Z" fill="#B6E3EE"/>
<path d="M29.6131 15.8326H28.9369V15.1097C28.9369 12.7197 27.5262 10.5395 25.346 9.56019C27.1182 8.18446 27.433 5.6312 26.0456 3.87073C24.6698 2.09861 22.1166 1.78382 20.3561 3.17121C18.584 4.54694 18.2692 7.1002 19.6566 8.86066C19.8665 9.12881 20.0996 9.36199 20.3561 9.56019C18.1759 10.5395 16.7652 12.7197 16.7652 15.1097V15.8326H13.3842C12.265 15.8326 11.3556 16.742 11.3556 17.8612V23.469C10.761 22.7229 9.99152 22.1166 9.11711 21.7319C10.8892 20.3562 11.204 17.8146 9.82829 16.0424C8.45257 14.2703 5.91096 13.9555 4.13884 15.3313C2.36671 16.707 2.05193 19.2486 3.42766 21.0207C3.63751 21.2889 3.87069 21.5337 4.13884 21.7319C1.92368 22.7812 0.512978 25.0196 0.536295 27.468V28.6805C0.536295 29.7997 1.44568 30.7091 2.56491 30.7091H11.3556V34.0901C11.3556 35.2094 12.265 36.1187 13.3842 36.1187H29.6131C30.7324 36.1187 31.6418 35.2094 31.6418 34.0901V17.8612C31.6418 16.742 30.7324 15.8326 29.6131 15.8326ZM20.1579 6.3657C20.1696 4.87338 21.3937 3.67254 22.8861 3.68419C24.3784 3.69585 25.5792 4.92002 25.5676 6.41233C25.5559 7.7764 24.5416 8.91896 23.1892 9.08218C22.9677 9.05886 22.7345 9.05886 22.513 9.08218C21.1489 8.89564 20.1463 7.72977 20.1579 6.3657ZM18.1293 15.1097C18.1176 12.6614 19.9714 10.6095 22.4081 10.3763C22.7112 10.4113 23.0143 10.4113 23.3174 10.3763C25.7541 10.6095 27.6078 12.6614 27.5962 15.1097V15.8326H18.1293V15.1097ZM6.63381 15.8326C8.12612 15.7393 9.40858 16.8702 9.50185 18.3625C9.59512 19.8548 8.46422 21.1373 6.97191 21.2306C6.75039 21.2189 6.51722 21.2189 6.2957 21.2306C4.80339 21.1373 3.67249 19.8548 3.76576 18.3625C3.84737 16.8702 5.14149 15.7393 6.63381 15.8326ZM2.57657 29.345C2.20349 29.345 1.90037 29.0419 1.90037 28.6688V27.4563C1.87705 24.973 3.73078 22.8744 6.19077 22.5946C6.4939 22.6296 6.79703 22.6296 7.0885 22.5946C9.52517 22.8278 11.3672 24.8797 11.3556 27.3281V29.3567H2.57657V29.345ZM30.2893 34.0785C30.2893 34.4515 29.9862 34.7547 29.6131 34.7547H13.3959C13.0228 34.7547 12.7197 34.4515 12.7197 34.0785V17.8612C12.7197 17.4881 13.0228 17.185 13.3959 17.185H29.6131C29.9862 17.185 30.2893 17.4881 30.2893 17.8612V34.0785ZM2.57657 13.1278H13.3959C14.5151 13.1278 15.4245 12.2184 15.4245 11.0991V9.40862L17.8495 7.57821C18.1526 7.35669 18.2109 6.92532 17.9894 6.63385C17.9544 6.58721 17.9078 6.54058 17.8495 6.49395L15.4128 4.66353V2.98467C15.4128 1.86543 14.5034 0.956055 13.3842 0.956055H2.57657C1.45733 0.956055 0.547954 1.86543 0.547954 2.98467V11.0991C0.547954 12.2184 1.45733 13.1278 2.57657 13.1278ZM1.90037 2.98467C1.90037 2.61159 2.20349 2.30847 2.57657 2.30847H13.3959C13.7689 2.30847 14.0721 2.61159 14.0721 2.98467V5.01329C14.0721 5.22314 14.177 5.42134 14.3402 5.54959L16.3222 7.0419L14.3402 8.53422C14.1653 8.66247 14.0721 8.86066 14.0721 9.07052V11.0991C14.0721 11.4722 13.7689 11.7753 13.3959 11.7753H2.57657C2.20349 11.7753 1.90037 11.4722 1.90037 11.0991V2.98467ZM5.28139 5.01329H10.691C11.0641 5.01329 11.3672 5.31641 11.3672 5.68949C11.3672 6.06257 11.0641 6.3657 10.691 6.3657H5.28139C4.90831 6.3657 4.60519 6.06257 4.60519 5.68949C4.60519 5.31641 4.90831 5.01329 5.28139 5.01329ZM5.28139 7.71811H10.691C11.0641 7.71811 11.3672 8.02124 11.3672 8.39432C11.3672 8.76739 11.0641 9.07052 10.691 9.07052H5.28139C4.90831 9.07052 4.60519 8.76739 4.60519 8.39432C4.60519 8.02124 4.90831 7.71811 5.28139 7.71811ZM18.1293 19.3768L16.7769 24.7865C16.6836 25.1595 16.3105 25.3927 15.9375 25.2995C15.5644 25.2062 15.3312 24.8331 15.4245 24.46L16.7769 19.0504C16.8702 18.6773 17.2432 18.4441 17.6163 18.5374C17.9894 18.619 18.2109 19.0037 18.1293 19.3768Z" fill="#00425F"/>
</g>
<defs>
<clipPath id="clip0_1_298">
<rect width="44" height="44" fill="white"/>
</clipPath>
</defs>
</svg>
