<svg width="66" height="66" viewBox="0 0 66 66" fill="none" xmlns="http://www.w3.org/2000/svg">
<path d="M43.4147 33.6251C50.6603 33.6251 56.534 27.7515 56.534 20.5059C56.534 13.2604 50.6603 7.38672 43.4147 7.38672C36.1692 7.38672 30.2955 13.2604 30.2955 20.5059C30.2955 27.7515 36.1692 33.6251 43.4147 33.6251Z" fill="#B6E3EE"/>
<path d="M49.9814 19.6805V18.1521H48.2886V14.2227H46.7584V18.1521H43.1123L40.6238 14.2227H38.8523V18.1521H36.8465V19.6805H38.8523V21.6846H36.8465V23.2148H38.8523V26.791H40.3807V23.22H44.4186L46.6518 26.791H48.2939V23.22H49.9866V21.6846H48.2939V19.6805H49.9814ZM40.2513 16.2355L40.3073 16.218C40.6011 16.8493 40.9403 17.4981 41.3076 18.1521H40.337C40.316 17.4963 40.288 16.872 40.2513 16.2355ZM40.3807 21.6899V21.4206C40.3807 20.7945 40.3807 20.2209 40.3702 19.6805H42.2029C42.3533 19.9254 42.5043 20.1696 42.6558 20.4133L43.455 21.6899H40.3807ZM46.9456 24.6453L46.9071 24.6645C46.6891 24.1912 46.4501 23.7097 46.1901 23.22H46.8424C46.8669 23.6922 46.9018 24.1626 46.9456 24.6453ZM46.7829 21.6899H45.3315C45.1181 21.3296 44.8925 20.9606 44.6512 20.5812L44.0811 19.6805H46.7584C46.7602 20.3975 46.7672 21.0568 46.7829 21.6846V21.6899Z" fill="white"/>
<path d="M36.9357 12.8149C36.8272 12.8149 36.7066 12.8149 36.5754 12.8254C36.2383 12.8258 35.9015 12.8445 35.5664 12.8814C29.4282 13.6701 25.1368 16.998 22.8004 22.7689C22.7246 22.9822 22.6011 23.1753 22.4392 23.3335C22.2774 23.4917 22.0815 23.6108 21.8666 23.6817C18.4515 24.9559 15.6004 27.4022 13.8223 30.5841C12.063 33.74 11.5041 37.4256 12.2484 40.9613C13.0022 44.5621 15.0302 47.77 17.9598 49.9954C20.8889 52.2122 24.5327 53.2707 28.1936 52.9683C34.3143 52.4681 38.6862 49.2609 41.1781 43.434C41.2949 43.1145 41.4809 42.8249 41.7228 42.5857C41.9646 42.3466 42.2564 42.1639 42.5772 42.0507C45.9566 40.7277 48.7471 38.2327 50.4386 35.0218C52.1301 31.8109 52.6097 28.0985 51.7896 24.5631C50.1773 17.6363 44.2 12.9164 36.9357 12.8149ZM27.1566 51.3437H27.0831C23.5108 51.3233 20.0921 49.8879 17.5761 47.3518C15.06 44.8158 13.6517 41.3859 13.6596 37.8135C13.6882 34.2644 15.1169 30.8701 17.6349 28.3687C20.1529 25.8674 23.5566 24.4614 27.1059 24.4564H27.1881C30.7503 24.4796 34.158 25.9146 36.6636 28.4468C39.1692 30.979 40.5683 34.4016 40.5538 37.9639C40.5084 45.3559 34.5049 51.3437 27.1566 51.3437ZM41.9284 34.4908C40.2758 28.5625 36.6156 24.8464 30.7363 23.1239L30.2939 22.9945L30.5369 22.6028C31.0878 21.7284 32.1335 20.8837 33.4084 20.2979C34.8208 19.641 36.3849 19.3793 37.9342 19.5407C41.6835 19.9621 44.8645 22.8896 45.4976 26.5007C46.2093 30.5579 44.0076 33.6707 42.453 34.6849L42.0543 34.9438L41.9284 34.4908ZM42.7485 40.0869L42.2624 40.2932V39.7686C42.2624 39.5675 42.2624 39.3646 42.2624 39.1653C42.2624 38.6057 42.2624 38.0268 42.2781 37.4585C42.2953 37.312 42.3434 37.1709 42.4194 37.0446C42.4954 36.9182 42.5975 36.8095 42.7188 36.7258C45.3804 34.9105 46.9158 32.4343 47.2656 29.3687C47.7028 25.5634 46.4192 22.4331 43.4515 20.0618C42.3625 19.1773 41.1023 18.5277 39.7502 18.1536C38.398 17.7795 36.9831 17.6891 35.5943 17.8881C34.1818 18.0934 32.827 18.589 31.6154 19.3435C30.4037 20.098 29.3613 21.0952 28.5538 22.2722C28.4556 22.4292 28.3155 22.5557 28.1493 22.6373C27.983 22.7188 27.7973 22.7523 27.613 22.7339C27.0534 22.7129 26.485 22.7164 25.9324 22.7217H24.7608L24.9356 22.2478C26.1598 19.037 30.7678 14.1073 37.8992 14.5445C41.0056 14.7413 43.9471 16.0112 46.2208 18.1369C48.4945 20.2626 49.9592 23.1121 50.3644 26.1982C51.2388 32.826 47.1921 38.2 42.7485 40.0816V40.0869Z" fill="#00425F"/>
<path d="M44.9082 46.0274L46.5206 47.6362L45.7494 48.4494C46.3614 48.4687 46.9706 48.3577 47.5365 48.1237C48.1024 47.8898 48.6121 47.5382 49.0318 47.0923C49.4401 46.6752 49.7619 46.1814 49.9786 45.6393C50.1953 45.0973 50.3026 44.5178 50.2944 43.9341C50.2944 43.0597 50.2944 42.1941 50.2944 41.283H52.6675C52.7479 43.7312 52.9298 46.1917 51.2055 48.278C49.9289 49.8169 48.3218 50.7053 46.3195 50.8574C46.1551 50.8697 45.9925 50.8924 45.8281 50.9099L45.7441 51.0393L46.5906 51.6251L44.8418 53.3372L41.2184 49.6648L44.9082 46.0274Z" fill="#00425F"/>
<path d="M13.9289 24.5702H11.6118C11.5821 24.5352 11.5453 24.5124 11.5453 24.4915C11.5856 23.1484 11.4684 21.7774 11.7027 20.4693C12.2536 17.374 14.8015 15.2143 17.9266 14.9747C18.077 14.9625 18.2256 14.9415 18.4757 14.9117L17.708 14.1021C18.2816 13.532 18.8307 12.9881 19.3938 12.4268C19.4445 12.4705 19.5179 12.5229 19.5809 12.5841C20.7648 13.7593 21.947 14.9362 23.0994 16.0817L19.3641 19.8205L17.6625 18.1015L18.4932 17.5681L18.3778 17.4037C18.1618 17.3871 17.9449 17.3871 17.729 17.4037C16.6749 17.5715 15.7145 18.1079 15.0189 18.9175C14.3233 19.7271 13.9377 20.7573 13.9307 21.8246C13.9184 22.7235 13.9289 23.6241 13.9289 24.5702Z" fill="#00425F"/>
<path d="M33.6742 37.0736V35.5452H31.9796V31.6157H30.4512V35.5452H26.805L24.3078 31.6157H22.5433V35.5452H20.5375V37.0736H22.5433V39.0847H20.5375V40.6131H22.5433V44.1841H24.0735V40.6131H28.1044L30.3393 44.1841H31.9796V40.6131H33.6742V39.0847H31.9796V37.0736H33.6742ZM23.9423 33.6303L23.9983 33.6111C24.2921 34.2441 24.6313 34.8912 24.9986 35.5452H24.0298C24.0088 34.8912 23.979 34.2756 23.9423 33.6303ZM24.0735 39.0847V38.8224C24.0735 38.1963 24.0735 37.6227 24.063 37.0824H25.8957C26.0449 37.3272 26.1959 37.5714 26.3486 37.8151L27.1478 39.0934L24.0735 39.0847ZM30.6366 42.0401L30.5998 42.0576C30.3795 41.5837 30.1417 41.1045 29.8811 40.6131H30.5334C30.5596 41.0853 30.6033 41.5557 30.6366 42.0401ZM30.4739 39.0847H29.0295C28.8144 38.7227 28.5888 38.3537 28.3492 37.9742L27.7721 37.0736H30.4512C30.4512 37.7906 30.4582 38.4516 30.4739 39.0847Z" fill="#00425F"/>
</svg>
