<svg width="49" height="49" viewBox="0 0 49 49" fill="none" xmlns="http://www.w3.org/2000/svg">
<path d="M31.615 47.8055C40.0906 47.8055 46.9615 40.9346 46.9615 32.4589C46.9615 23.9832 40.0906 17.1123 31.615 17.1123C23.1393 17.1123 16.2684 23.9832 16.2684 32.4589C16.2684 40.9346 23.1393 47.8055 31.615 47.8055Z" fill="#B6E3EE"/>
<path d="M20.553 33.5237L26.5124 41.0152L44.0662 27.7979L40.7814 24.3962L26.863 35.1596L23.3704 30.8361L20.553 33.5237Z" fill="white"/>
<path d="M9.55595 30.966H33.1081C34.5234 30.966 35.6789 29.8104 35.6789 28.3952V13.1655C35.6789 11.7503 34.5234 10.5947 33.1081 10.5947H32.6148L27.7979 2.18137C27.3434 1.38937 26.4995 0.895996 25.5777 0.895996H25.4998C25.0843 0.90898 24.6688 1.02583 24.3053 1.24655L4.10285 12.9967C2.88239 13.7108 2.46692 15.2818 3.16803 16.5152L6.9852 23.1758V28.4082C6.9852 29.8104 8.14074 30.966 9.55595 30.966ZM31.4592 10.5817H21.1892L28.8885 6.10241L31.4592 10.5817ZM27.5252 3.70045L28.4081 5.23251L19.2157 10.5817H15.7102L27.5252 3.70045ZM24.7987 2.09048C25.1492 1.88275 25.5777 1.81783 25.9802 1.93468C26.3827 2.03855 26.7202 2.31121 26.928 2.67475L27.0189 2.84353L26.8501 2.9474L13.7367 10.5817H10.2311L24.7987 2.09048ZM7.98493 13.1655C7.98493 12.2956 8.68605 11.5815 9.56893 11.5815H33.1081C33.978 11.5815 34.6921 12.2956 34.6921 13.1655V28.3952C34.6921 29.2651 33.991 29.9792 33.1081 29.9792H9.55595C8.68605 29.9792 7.97195 29.2651 7.97195 28.3952V13.1655H7.98493ZM4.03793 16.0089C3.60947 15.2558 3.86914 14.295 4.6092 13.8536L7.07608 12.4124L7.01117 12.8798C6.99818 12.9707 6.9852 13.0746 6.9852 13.1655V14.5158L4.12881 16.1777L4.03793 16.0089ZM4.62219 17.0476L6.9852 15.6713V17.7097L5.50507 18.5666L4.62219 17.0476ZM5.99845 19.4365L6.9852 18.8653V21.1634L5.99845 19.4365Z" fill="#03435F"/>
<path d="M21.332 25.8245H11.6333C11.3606 25.8374 11.1529 26.0712 11.1659 26.3438C11.1788 26.6035 11.3866 26.7982 11.6333 26.8112H21.332C21.6047 26.7982 21.8124 26.5645 21.7994 26.2919C21.7994 26.0322 21.5917 25.8374 21.332 25.8245Z" fill="#03435F"/>
<path d="M27.3435 24.7727H32.3551C32.9134 24.7727 33.3808 25.2271 33.3808 25.7984C33.3808 26.3567 32.9264 26.8241 32.3551 26.8241H27.3435C26.7852 26.8241 26.3177 26.3697 26.3177 25.7984C26.3307 25.2271 26.7852 24.7727 27.3435 24.7727Z" fill="#03435F"/>
</svg>
