<svg width="33" height="33" viewBox="0 0 33 33" fill="none" xmlns="http://www.w3.org/2000/svg">
<path d="M16.5 3.17969C13.9288 3.17969 11.4154 3.94212 9.27759 5.37058C7.13975 6.79904 5.47351 8.82936 4.48957 11.2048C3.50563 13.5802 3.24819 16.1941 3.7498 18.7159C4.25141 21.2376 5.48953 23.554 7.30762 25.3721C9.1257 27.1902 11.4421 28.4283 13.9638 28.9299C16.4856 29.4315 19.0995 29.1741 21.4749 28.1901C23.8503 27.2062 25.8807 25.5399 27.3091 23.4021C28.7376 21.2643 29.5 18.7508 29.5 16.1797C29.496 12.7331 28.1251 9.42881 25.688 6.9917C23.2509 4.55459 19.9466 3.18367 16.5 3.17969ZM22.6914 13.9033L15.3574 20.9033C15.171 21.0807 14.9234 21.1797 14.666 21.1797C14.4086 21.1797 14.1611 21.0807 13.9746 20.9033L10.3086 17.4033C10.1171 17.2199 10.0062 16.9679 10.0003 16.7027C9.99446 16.4376 10.0941 16.1809 10.2773 15.9892C10.4605 15.7974 10.7124 15.6862 10.9775 15.68C11.2426 15.6738 11.4994 15.7731 11.6914 15.9561L14.666 18.7969L21.3086 12.4561C21.5006 12.2731 21.7574 12.1738 22.0225 12.18C22.2877 12.1862 22.5395 12.2974 22.7227 12.4892C22.9059 12.6809 23.0056 12.9376 22.9997 13.2027C22.9938 13.4679 22.8829 13.7199 22.6914 13.9033Z" fill="#0275D8"/>
</svg>
