<svg width="55" height="55" viewBox="0 0 55 55" fill="none" xmlns="http://www.w3.org/2000/svg">
<path d="M14.8876 19.25H51.6267C53.0814 19.25 54.2517 18.0797 54.2517 16.625V11.375C54.2517 10.8937 53.858 10.5 53.3767 10.5C52.8955 10.5 52.5017 10.8937 52.5017 11.375V16.625C52.5017 17.1062 52.108 17.5 51.6267 17.5H14.8876C12.4705 17.5 10.5126 19.4578 10.5126 21.875C10.5126 24.2922 12.4705 26.25 14.8876 26.25H30.6376C31.1189 26.25 31.5126 26.6437 31.5126 27.125V31.5H13.1267C11.672 31.5 10.5017 32.6703 10.5017 34.125V51.625C10.5017 53.0797 11.672 54.25 13.1267 54.25H51.6158C53.0705 54.25 54.2408 53.0797 54.2408 51.625V34.125C54.2408 32.6703 53.0705 31.5 51.6158 31.5H33.2517V27.125C33.2517 25.6703 32.0814 24.5 30.6267 24.5H14.8767C13.422 24.5 12.2517 23.3297 12.2517 21.875C12.2517 20.4203 13.433 19.25 14.8876 19.25ZM15.7517 37.625C15.7517 36.1703 16.922 35 18.3767 35H21.8767C23.3314 35 24.5017 36.1703 24.5017 37.625V39.375C24.5017 40.8297 23.3314 42 21.8767 42H18.3767C16.922 42 15.7517 40.8297 15.7517 39.375V37.625ZM48.9908 48.125C48.9908 49.5797 47.8205 50.75 46.3658 50.75H18.3767C16.922 50.75 15.7517 49.5797 15.7517 48.125V46.375C15.7517 44.9203 16.922 43.75 18.3767 43.75H46.3658C47.8205 43.75 48.9908 44.9203 48.9908 46.375V48.125ZM40.2408 37.625C40.2408 36.1703 41.4111 35 42.8658 35H46.3658C47.8205 35 48.9908 36.1703 48.9908 37.625V39.375C48.9908 40.8297 47.8205 42 46.3658 42H42.8658C41.4111 42 40.2408 40.8297 40.2408 39.375V37.625ZM36.7408 37.625V39.375C36.7408 40.8297 35.5705 42 34.1158 42H30.6267C29.172 42 28.0017 40.8297 28.0017 39.375V37.625C28.0017 36.1703 29.172 35 30.6267 35H34.1267C35.5705 35 36.7517 36.1812 36.7408 37.625Z" fill="#B7E3EE"/>
<path d="M18.3767 45.5H46.3658C46.847 45.5 47.2408 45.8937 47.2408 46.375V48.125C47.2408 48.6063 46.847 49 46.3658 49H18.3767C17.8955 49 17.5017 48.6063 17.5017 48.125V46.375C17.5017 45.8937 17.8955 45.5 18.3767 45.5Z" fill="#B7E3EE"/>
<path d="M18.3767 36.75H21.8767C22.358 36.75 22.7517 37.1437 22.7517 37.625V39.375C22.7517 39.8563 22.358 40.25 21.8767 40.25H18.3767C17.8955 40.25 17.5017 39.8563 17.5017 39.375V37.625C17.5017 37.1437 17.8955 36.75 18.3767 36.75Z" fill="#B7E3EE"/>
<path d="M30.6267 36.75H34.1267C34.608 36.75 35.0017 37.1437 35.0017 37.625V39.375C35.0017 39.8563 34.608 40.25 34.1267 40.25H30.6267C30.1455 40.25 29.7517 39.8563 29.7517 39.375V37.625C29.7517 37.1437 30.1345 36.75 30.6267 36.75Z" fill="#B7E3EE"/>
<path d="M42.8658 36.75H46.3658C46.8471 36.75 47.2408 37.1437 47.2408 37.625V39.375C47.2408 39.8563 46.8471 40.25 46.3658 40.25H42.8658C42.3846 40.25 41.9908 39.8563 41.9908 39.375V37.625C41.9908 37.1437 42.3846 36.75 42.8658 36.75Z" fill="#B7E3EE"/>
<path d="M41.8377 33.2062L37.6268 21.9078C37.6268 21.8969 37.6377 21.8859 37.6377 21.875V2.625C37.6377 1.17031 36.4674 0 35.0127 0H7.00176C5.54707 0 4.37676 1.17031 4.37676 2.625V21.875C4.37676 21.8859 4.3877 21.8969 4.3877 21.9078L0.165822 33.2062C-0.337303 34.5625 0.340822 36.0719 1.70801 36.5859C2.00332 36.6953 2.30957 36.75 2.61582 36.75H39.3877C40.8424 36.75 42.0127 35.5687 42.0018 34.1141C42.0018 33.8078 41.9471 33.5016 41.8377 33.2062ZM6.12676 2.625C6.12676 2.14375 6.52051 1.75 7.00176 1.75H35.0018C35.483 1.75 35.8768 2.14375 35.8768 2.625V21H6.12676V2.625ZM39.3877 35H2.61582C2.13457 35 1.74082 34.5953 1.75176 34.1141C1.75176 34.0156 1.77363 33.9062 1.80645 33.8078L5.94082 22.75H36.0736L40.208 33.8188C40.383 34.2672 40.1533 34.7703 39.6939 34.9453C39.5955 34.9781 39.4861 35 39.3877 35Z" fill="#04435F"/>
<path d="M31.5017 3.5H10.5017C9.04702 3.5 7.87671 4.67031 7.87671 6.125V16.625C7.87671 18.0797 9.04702 19.25 10.5017 19.25H31.5017C32.9564 19.25 34.1267 18.0797 34.1267 16.625V6.125C34.1267 4.67031 32.9564 3.5 31.5017 3.5ZM32.3767 16.625C32.3767 17.1062 31.983 17.5 31.5017 17.5H10.5017C10.0205 17.5 9.62671 17.1062 9.62671 16.625V6.125C9.62671 5.64375 10.0205 5.25 10.5017 5.25H31.5017C31.983 5.25 32.3767 5.64375 32.3767 6.125V16.625Z" fill="#04435F"/>
<path d="M27.0393 26.7312C26.8862 26.4359 26.5799 26.25 26.2518 26.25H17.5018C17.1737 26.25 16.8674 26.4359 16.7143 26.7312L14.9643 30.2313C14.7455 30.6688 14.9205 31.1938 15.358 31.4016C15.4784 31.4672 15.6096 31.4891 15.7518 31.4891H28.0018C28.483 31.4891 28.8768 31.1063 28.8768 30.6141C28.8768 30.4719 28.844 30.3406 28.7893 30.2203L27.0393 26.7312ZM17.1737 29.75L18.0487 28H25.7158L26.5908 29.75H17.1737Z" fill="#04435F"/>
</svg>
