<svg width="313" height="309" viewBox="0 0 313 309" fill="none" xmlns="http://www.w3.org/2000/svg">
<rect width="313" height="308.838" rx="154.419" fill="#E5F5FA"/>
<g clip-path="url(#clip0_2_2342)">
<path opacity="0.2" fill-rule="evenodd" clip-rule="evenodd" d="M239.565 203.977C242.033 205.395 242.033 207.726 239.565 209.153L173.953 246.994C172.561 247.698 171.023 248.064 169.464 248.064C167.904 248.064 166.367 247.698 164.975 246.994L99.3717 209.153C96.9034 207.726 96.9034 205.395 99.3717 203.977L164.975 166.126C166.367 165.423 167.904 165.057 169.464 165.057C171.023 165.057 172.561 165.423 173.953 166.126L239.565 203.977Z" fill="#1C7ED6"/>
<path d="M159.378 150.778L158.474 151.266" stroke="#33475C" stroke-width="1.17" stroke-linecap="round" stroke-linejoin="round"/>
<path d="M100.845 177.662L171.412 136.957C172.77 136.288 174.295 136.033 175.797 136.226L181.294 180.354C181.511 182.161 179.17 183.489 176.077 183.362L99.5795 180.201C99.454 179.696 99.5125 179.164 99.7445 178.699C99.9765 178.233 100.367 177.866 100.845 177.662Z" fill="white" stroke="#33475C" stroke-width="5.87" stroke-linecap="round" stroke-linejoin="round"/>
<path d="M193.229 150.372L182.316 192.739L126.351 192.062C125.211 192.721 101.207 180.318 99.5796 180.201L94.2814 136.027C94.0554 134.22 96.4061 132.883 99.4982 133.019L175.653 136.235C175.924 137.138 194.413 149.713 193.274 150.372H193.229Z" fill="white" stroke="#33475C" stroke-width="5.87" stroke-linecap="round" stroke-linejoin="round"/>
<path d="M238.453 172.883L228.752 168.963L228.155 169.541L179.17 141.284C178.139 140.697 182.298 145.16 180.978 145.033L186.403 173.886L161.847 173.154C158.764 173.028 163.501 178.412 163.727 180.201L157.932 186.524L118.81 184.898L99.5525 180.173V184.103C99.8691 184.993 100.517 185.728 101.361 186.154L158.764 219.27C159.798 219.82 160.933 220.158 162.1 220.264C163.602 220.462 165.129 220.207 166.485 219.532L237.133 178.855C237.516 178.678 237.844 178.401 238.081 178.052C238.319 177.704 238.457 177.297 238.48 176.876V172.883H238.453Z" fill="white" stroke="#33475C" stroke-width="5.87" stroke-linecap="round" stroke-linejoin="round"/>
<path d="M112.102 179.758L157.923 181.655L157.136 175.331L112.102 179.758ZM162.154 216.289C160.995 216.218 159.863 215.91 158.827 215.386L101.415 182.278C100.574 181.847 99.9282 181.115 99.6067 180.227L157.986 182.639L162.154 216.289ZM238.182 172.323H238.372C238.018 171.489 237.376 170.809 236.563 170.408L179.17 137.291C178.084 136.696 176.886 136.334 175.653 136.225L179.848 169.911L238.227 172.323H238.182Z" fill="white" stroke="#33475C" stroke-width="5.87" stroke-linecap="round" stroke-linejoin="round"/>
<path d="M166.539 215.557L237.133 174.852C237.516 174.677 237.843 174.402 238.08 174.055C238.318 173.708 238.456 173.303 238.48 172.883C238.479 172.694 238.452 172.505 238.399 172.323L161.874 169.17C158.791 169.044 156.449 170.399 156.666 172.187L162.154 216.307C163.656 216.505 165.183 216.25 166.539 215.575V215.557Z" fill="white" stroke="#33475C" stroke-width="5.87" stroke-linecap="round" stroke-linejoin="round"/>
<path fill-rule="evenodd" clip-rule="evenodd" d="M100.845 177.662L171.412 136.957C172.77 136.288 174.295 136.033 175.797 136.226L181.294 180.354C181.511 182.161 179.17 183.489 176.077 183.362L99.5795 180.201C99.454 179.696 99.5125 179.164 99.7445 178.699C99.9765 178.233 100.367 177.866 100.845 177.662Z" fill="white"/>
<path d="M100.845 177.662L171.412 136.957C172.77 136.288 174.295 136.033 175.797 136.226L181.294 180.354C181.511 182.161 179.17 183.489 176.077 183.362L99.5795 180.201C99.454 179.696 99.5125 179.164 99.7445 178.699C99.9765 178.233 100.367 177.866 100.845 177.662Z" fill="white" stroke="#33475C" stroke-width="1.17"/>
<path fill-rule="evenodd" clip-rule="evenodd" d="M193.229 150.372L182.316 192.739L126.351 192.062C125.211 192.721 101.207 180.318 99.5796 180.201L94.2814 136.027C94.0554 134.22 96.4061 132.883 99.4982 133.019L175.653 136.235C175.924 137.138 194.413 149.713 193.274 150.372" fill="white"/>
<path d="M193.229 150.372L182.316 192.739L126.351 192.062C125.211 192.721 101.207 180.318 99.5796 180.201L94.2814 136.027C94.0554 134.22 96.4061 132.883 99.4982 133.019L175.653 136.235C175.924 137.138 194.413 149.713 193.274 150.372H193.229Z" fill="white" stroke="#33475C" stroke-width="2.35" stroke-linejoin="round"/>
<path fill-rule="evenodd" clip-rule="evenodd" d="M238.453 172.883L228.752 168.963L228.155 169.541L179.17 141.284C178.139 140.697 182.298 145.16 180.978 145.033L186.403 173.886L161.847 173.154C158.764 173.028 163.501 178.412 163.727 180.201L157.932 186.524L118.81 184.898L99.5525 180.173V184.103C99.8691 184.993 100.517 185.728 101.361 186.154L158.764 219.27C159.798 219.82 160.933 220.158 162.1 220.264C163.602 220.462 165.129 220.207 166.485 219.532L237.133 178.855C237.516 178.678 237.844 178.401 238.081 178.052C238.319 177.704 238.457 177.297 238.48 176.876V172.883H238.453Z" fill="white"/>
<path d="M238.453 172.883L228.752 168.963L228.155 169.541L179.17 141.284C178.139 140.697 182.298 145.16 180.978 145.033L186.403 173.886L161.847 173.154C158.764 173.028 163.501 178.412 163.727 180.201L157.932 186.524L118.81 184.898L99.5525 180.173V184.103C99.8691 184.993 100.517 185.728 101.361 186.154L158.764 219.27C159.798 219.82 160.933 220.158 162.1 220.264C163.602 220.462 165.129 220.207 166.485 219.532L237.133 178.855C237.516 178.678 237.844 178.401 238.081 178.052C238.319 177.704 238.457 177.297 238.48 176.876V172.883H238.453Z" fill="white" stroke="#33475C" stroke-width="2.35" stroke-linejoin="round"/>
<path fill-rule="evenodd" clip-rule="evenodd" d="M112.102 179.758L157.923 181.655L157.136 175.332L112.102 179.758ZM162.154 216.289C160.995 216.218 159.863 215.911 158.827 215.386L101.415 182.278C100.574 181.848 99.9282 181.115 99.6067 180.228L157.986 182.64L162.154 216.289Z" fill="white"/>
<path d="M142.562 193.85C130.94 193.434 119.941 188.497 111.912 180.092C98.5037 166.388 92.0301 144.563 92.6811 114.364C92.6945 114.027 92.74 113.691 92.8167 113.362L93.0337 112.874C93.5005 112.266 94.077 111.752 94.7335 111.356L157.299 77.2547C158.384 77.074 158.736 77.1011 159.207 78.3297L159.306 78.5736C153.709 135.485 200.127 160.245 200.597 160.489C200.813 160.605 200.992 160.778 201.118 160.988C201.243 161.197 201.309 161.437 201.309 161.682C201.309 161.926 201.243 162.166 201.118 162.376C200.992 162.586 200.813 162.758 200.597 162.874C184.142 172.079 145.59 193.561 143.791 193.796C143.383 193.84 142.972 193.858 142.562 193.85V193.85Z" stroke="#33475C" stroke-width="2.35" stroke-linejoin="round"/>
<path d="M94.6882 113.226C94.5438 113.303 94.423 113.417 94.3386 113.557C94.2542 113.697 94.2094 113.858 94.209 114.021C92.5816 193.733 142.001 192.54 143.746 192.269C145.328 192.034 190.091 167.111 198.708 162.305C198.851 162.228 198.971 162.113 199.055 161.973C199.138 161.833 199.182 161.673 199.182 161.51C199.182 161.347 199.138 161.187 199.055 161.047C198.971 160.907 198.851 160.793 198.708 160.715C190.941 156.108 153.764 131.284 157.941 79.9828C157.966 79.8129 157.942 79.6395 157.872 79.4827C157.802 79.3259 157.689 79.1922 157.545 79.0975C157.402 79.0027 157.235 78.9506 157.063 78.9474C156.891 78.9442 156.722 78.99 156.575 79.0794L94.6882 113.226Z" fill="white" stroke="#33475C" stroke-width="2.35" stroke-linejoin="round"/>
<path d="M162.154 216.289C160.995 216.218 159.863 215.911 158.827 215.386L101.415 182.278C100.574 181.848 99.9282 181.115 99.6067 180.228L157.986 182.639L162.154 216.289Z" fill="white" stroke="#33475C" stroke-width="2.35" stroke-linejoin="round"/>
<path fill-rule="evenodd" clip-rule="evenodd" d="M238.182 172.323H238.372C238.018 171.489 237.376 170.809 236.563 170.408L179.17 137.291C178.084 136.696 176.886 136.334 175.653 136.225L179.848 169.911L238.227 172.323H238.182Z" fill="white"/>
<path d="M238.182 172.323H238.372C238.018 171.489 237.376 170.809 236.563 170.408L179.17 137.291C178.084 136.696 176.886 136.334 175.653 136.225L179.848 169.911L238.227 172.323H238.182Z" fill="white" stroke="#33475C" stroke-width="2.35" stroke-linejoin="round"/>
<path fill-rule="evenodd" clip-rule="evenodd" d="M235.325 171.248H235.497C235.166 170.467 234.57 169.828 233.815 169.441L180.083 138.457C179.052 137.896 177.916 137.557 176.747 137.463L180.67 169.008L235.325 171.248Z" fill="#E6EFF6"/>
<path fill-rule="evenodd" clip-rule="evenodd" d="M166.539 215.557L237.133 174.852C237.516 174.677 237.843 174.402 238.08 174.055C238.318 173.708 238.456 173.303 238.48 172.883C238.479 172.694 238.452 172.505 238.399 172.323L161.874 169.17C158.791 169.044 156.449 170.399 156.666 172.187L162.154 216.307C163.656 216.505 165.183 216.25 166.539 215.575" fill="white"/>
<path d="M166.539 215.557L237.133 174.852C237.516 174.677 237.843 174.402 238.08 174.055C238.318 173.708 238.456 173.303 238.48 172.883C238.479 172.694 238.452 172.505 238.399 172.323L161.874 169.17C158.791 169.044 156.449 170.399 156.666 172.187L162.154 216.307C163.656 216.505 165.183 216.25 166.539 215.575V215.557Z" fill="white" stroke="#33475C" stroke-width="2.35" stroke-linejoin="round"/>
<path fill-rule="evenodd" clip-rule="evenodd" d="M162.507 80.6421C168.618 82.1417 169.839 83.3522 171.331 89.4679C172.832 83.3522 174.043 82.1056 180.173 80.6421C174.061 79.1426 172.85 77.9321 171.349 71.8164C169.857 77.9321 168.637 79.1426 162.525 80.6421" fill="#F5C26B"/>
<path fill-rule="evenodd" clip-rule="evenodd" d="M151.178 67.2638C154.306 68.0317 154.93 68.655 155.699 71.7806C156.467 68.6459 157.091 68.0226 160.219 67.2638C157.091 66.496 156.467 65.8817 155.699 62.7471C154.93 65.8817 154.306 66.496 151.178 67.2638Z" fill="#F2547D"/>
<path fill-rule="evenodd" clip-rule="evenodd" d="M175.653 67.2636C180.083 68.3657 180.969 69.26 182.045 73.7678C183.13 69.251 184.016 68.3477 188.437 67.2636C183.971 66.1887 183.084 65.2853 181.981 60.7686C180.915 65.2853 180.038 66.1887 175.653 67.2636Z" fill="#7FD1DE" fill-opacity="0.5"/>
<path fill-rule="evenodd" clip-rule="evenodd" d="M160.906 214.708C159.811 214.618 158.744 214.311 157.769 213.805L103.874 182.721C102.907 182.161 102.111 181.98 101.912 181.293L156.964 183.1L160.906 214.708Z" fill="#E6EFF6"/>
<path d="M139.271 164.979L159.659 152.965C159.917 152.813 160.215 152.742 160.515 152.76C160.814 152.778 161.101 152.883 161.34 153.064L165.11 155.909C165.31 156.06 165.468 156.258 165.573 156.485C165.677 156.712 165.724 156.961 165.708 157.211C165.693 157.46 165.617 157.702 165.486 157.914C165.354 158.127 165.173 158.304 164.957 158.43L144.713 170.074C144.479 170.216 144.21 170.291 143.936 170.291C143.662 170.291 143.393 170.216 143.158 170.074L139.234 167.608C139.005 167.472 138.816 167.277 138.686 167.045C138.556 166.812 138.489 166.55 138.493 166.283C138.496 166.017 138.57 165.756 138.707 165.527C138.843 165.298 139.038 165.109 139.271 164.979Z" fill="#1C7ED6"/>
<path d="M119.678 158.222L155.699 137.445L119.678 158.222Z" fill="white"/>
<path d="M119.678 159.577C119.379 159.578 119.089 159.479 118.852 159.298C118.615 159.116 118.444 158.861 118.367 158.573C118.289 158.284 118.31 157.979 118.424 157.703C118.539 157.427 118.741 157.197 119 157.048L155.02 136.271C155.332 136.091 155.703 136.042 156.05 136.136C156.398 136.229 156.694 136.456 156.874 136.768C157.054 137.079 157.102 137.449 157.009 137.796C156.916 138.144 156.688 138.44 156.377 138.619L120.356 159.397C120.151 159.518 119.917 159.581 119.678 159.577Z" fill="#CED7DD"/>
<path d="M125.736 164.582L161.756 143.805L125.736 164.582Z" fill="white"/>
<path d="M125.745 165.937C125.445 165.939 125.153 165.842 124.915 165.661C124.676 165.48 124.504 165.225 124.426 164.937C124.347 164.648 124.367 164.341 124.481 164.064C124.595 163.788 124.798 163.557 125.058 163.407L161.078 142.63C161.39 142.45 161.76 142.402 162.108 142.495C162.455 142.588 162.752 142.816 162.932 143.127C163.111 143.438 163.16 143.809 163.067 144.156C162.974 144.503 162.746 144.799 162.434 144.979L126.414 165.756C126.212 165.876 125.98 165.939 125.745 165.937Z" fill="#CED7DD"/>
<path d="M97.2107 152.052L100.529 179.153L112.282 179.677C104.751 174.591 99.5072 161.041 97.2107 152.052Z" fill="#E6EFF6"/>
<path fill-rule="evenodd" clip-rule="evenodd" d="M115.402 179.812L156.711 181.537L156.015 176.117L115.402 179.812Z" fill="#E5E5E5"/>
</g>
<defs>
<clipPath id="clip0_2_2342">
<rect width="149.84" height="187.301" fill="white" transform="translate(91.5691 60.7686)"/>
</clipPath>
</defs>
</svg>
