<svg width="55" height="55" viewBox="0 0 55 55" fill="none" xmlns="http://www.w3.org/2000/svg">
<path d="M51.8788 28.2858L39.5741 26.503L34.0726 15.3577C33.646 14.4937 32.596 14.1327 31.7319 14.5593C31.3819 14.7343 31.1085 15.0077 30.9335 15.3577L25.4319 26.503L13.1273 28.2858C12.1757 28.428 11.5085 29.314 11.6507 30.2655C11.7054 30.6483 11.8804 30.9983 12.1648 31.2608L21.0679 39.9343L18.9679 52.1843C18.8038 53.1358 19.4491 54.0437 20.4007 54.2077C20.7835 54.2733 21.1663 54.2077 21.5054 54.0327L32.5085 48.2468L43.5116 54.0327C44.3648 54.4812 45.4257 54.153 45.8741 53.2999C46.0491 52.9608 46.1148 52.5671 46.0491 52.1952L43.9491 39.9452L52.8523 31.2718C53.5413 30.5937 53.5632 29.489 52.8851 28.7999C52.6116 28.5265 52.2616 28.3405 51.8788 28.2858Z" fill="#B6E3EE"/>
<path d="M45.7867 16.3973L45.3382 18.9895C45.2617 19.4708 45.5789 19.9192 46.0492 19.9958C46.2351 20.0286 46.432 19.9958 46.607 19.9083L48.9367 18.6833L51.2664 19.9083C51.6929 20.1379 52.2179 19.9739 52.4476 19.5364C52.5351 19.3614 52.5679 19.1754 52.5351 18.9786L52.0867 16.3864L53.9679 14.5489C54.307 14.2098 54.3179 13.652 53.9789 13.313C53.8476 13.1817 53.6726 13.0942 53.4867 13.0614L50.8835 12.6786L49.7132 10.3161C49.4617 9.87858 48.9039 9.73639 48.4664 9.99889C48.3351 10.0755 48.2257 10.1848 48.1492 10.3161L47.0007 12.6895L44.3976 13.0723C43.9164 13.138 43.5882 13.5864 43.6539 14.0676C43.6867 14.2536 43.7742 14.4286 43.9054 14.5708L45.7867 16.3973Z" fill="#B6E3EE"/>
<path d="M34.4442 28.1222C34.0286 27.8816 33.4926 28.0238 33.252 28.4394C29.6317 34.7175 21.6036 36.8722 15.3254 33.2519C13.3239 32.1035 11.6723 30.441 10.5129 28.4394C10.2614 28.0238 9.71449 27.9035 9.30981 28.155C8.91606 28.3956 8.78481 28.9097 9.00356 29.3144C13.1051 36.4347 22.2051 38.8738 29.3254 34.7613C31.5895 33.4597 33.4708 31.5785 34.7723 29.3144C35.002 28.8988 34.8598 28.3628 34.4442 28.1222Z" fill="#04435F"/>
<path d="M40.5802 33.2193C46.8474 22.8943 43.5443 9.44115 33.2193 3.17396C22.8943 -3.09323 9.44115 0.2099 3.17396 10.5349C-3.09323 20.8599 0.2099 34.313 10.5349 40.5802C17.5021 44.813 26.2521 44.813 33.2193 40.5802L42.5927 43.7083C43.0521 43.8615 43.5443 43.6099 43.6974 43.1505C43.7521 42.9755 43.7521 42.7787 43.6974 42.6037L40.5802 33.2193ZM21.8771 1.75209C32.6505 1.76302 41.499 10.2396 41.9802 21.0021H32.3771C27.0615 20.9911 22.763 16.6927 22.7521 11.3771C22.7521 10.8958 22.3583 10.5021 21.8771 10.5021C21.3958 10.5021 21.0021 10.8958 21.0021 11.3771C20.9911 16.6927 16.6927 20.9911 11.3771 21.0021H1.77396C2.25521 10.2396 11.1036 1.76302 21.8771 1.75209ZM35.0458 39.3443C35.5271 38.9724 35.9974 38.5896 36.4568 38.1849C36.8177 37.8568 36.8396 37.3099 36.5115 36.949C36.1943 36.599 35.6474 36.5662 35.2865 36.8833C26.9958 44.288 14.2755 43.5771 6.87084 35.2974C3.77552 31.8302 1.98177 27.4005 1.77396 22.7521H11.3771C15.9708 22.7521 20.1052 19.9849 21.8771 15.7521C23.649 19.9849 27.7833 22.7521 32.3771 22.7521H41.9693C41.8271 26.263 40.7552 29.6755 38.8849 32.6396C38.7427 32.8583 38.7099 33.1318 38.7974 33.3833L41.499 41.488L35.0458 39.3443Z" fill="#04435F"/>
</svg>
