<svg width="146" height="38" viewBox="0 0 146 38" fill="none" xmlns="http://www.w3.org/2000/svg">
<path fill-rule="evenodd" clip-rule="evenodd" d="M47.9953 19.8237L48.4916 17.2347C48.4916 17.2347 44.6704 16.0974 41.5604 18.2066V28.5636L44.863 28.5636V20.149C46.179 19.1771 47.9953 19.8237 47.9953 19.8237Z" fill="#00425F"/>
<mask id="mask0_1_424" style="mask-type:alpha" maskUnits="userSpaceOnUse" x="41" y="16" width="8" height="13">
<path d="M41.5604 18.2059C43.0568 17.1913 44.7178 16.9279 46.0386 16.9281C47.4629 16.9281 48.4918 17.2342 48.4918 17.2342L47.9953 19.8232C47.9953 19.8232 46.179 19.1766 44.863 20.1483V28.5629L41.5604 28.5629V18.2059Z" fill="white"/>
</mask>
<g mask="url(#mask0_1_424)">
<path fill-rule="evenodd" clip-rule="evenodd" d="M-159.476 60.6631L305.606 60.6631V-543.138L-159.476 -543.138V60.6631Z" fill="#00425F"/>
</g>
<mask id="mask1_1_424" style="mask-type:alpha" maskUnits="userSpaceOnUse" x="41" y="16" width="8" height="13">
<path d="M41.5604 18.2059C43.0568 17.1913 44.7176 16.9281 46.0386 16.9281C47.4629 16.9281 48.4918 17.2342 48.4918 17.2342L47.9953 19.8232C47.9953 19.8232 46.179 19.1766 44.863 20.1483V28.5629L41.5604 28.5629V18.2059Z" fill="white"/>
</mask>
<g mask="url(#mask1_1_424)">
<path fill-rule="evenodd" clip-rule="evenodd" d="M36.0234 33.6372L54.028 33.6372V11.8543L36.0234 11.8543V33.6372Z" fill="#00425F"/>
</g>
<path fill-rule="evenodd" clip-rule="evenodd" d="M19.5236 14.2813L22.8246 13.7113V17.0797L26.0911 17.0797V19.7735L22.8246 19.7735V23.7906C22.8246 24.475 22.9454 25.0182 23.1923 25.42C23.4364 25.8279 23.9259 26.03 24.661 26.03C25.0205 26.03 25.3815 25.9984 25.7623 25.9314C26.1323 25.8633 26.4774 25.7757 26.7879 25.6611L27.2549 28.1843C26.8554 28.3414 26.4137 28.4778 25.9268 28.5934C25.4384 28.7078 24.8387 28.7675 24.1301 28.7675C23.2294 28.7675 22.485 28.6471 21.8931 28.4084C21.3041 28.1697 20.8306 27.8347 20.4776 27.4073C20.1246 26.9836 19.8764 26.4636 19.7371 25.8548C19.5952 25.2471 19.5236 24.576 19.5236 23.8357V14.2813Z" fill="#00425F"/>
<mask id="mask2_1_424" style="mask-type:alpha" maskUnits="userSpaceOnUse" x="19" y="13" width="9" height="16">
<path d="M19.5244 14.2813L22.8254 13.7113V17.0797L26.0919 17.0797V19.7735L22.8254 19.7735V23.7906C22.8254 24.4752 22.9461 25.0182 23.1928 25.42C23.4369 25.8281 23.9264 26.03 24.6615 26.03C25.021 26.03 25.3818 25.9984 25.7628 25.9314C26.1329 25.8633 26.4781 25.7757 26.7886 25.6613L27.2555 28.1843C26.8561 28.3416 26.4142 28.4779 25.9273 28.5936C25.4389 28.708 24.8392 28.7675 24.1306 28.7675C23.2297 28.7675 22.4855 28.6471 21.8938 28.4084C21.3047 28.1697 20.8309 27.8347 20.4781 27.4074C20.1251 26.9836 19.8771 26.4636 19.7378 25.8548C19.5957 25.2471 19.5244 24.5762 19.5244 23.8357V14.2813Z" fill="white"/>
</mask>
<g mask="url(#mask2_1_424)">
<path fill-rule="evenodd" clip-rule="evenodd" d="M-159.476 60.6627L305.606 60.6627V-543.138L-159.476 -543.138V60.6627Z" fill="#00425F"/>
<path fill-rule="evenodd" clip-rule="evenodd" d="M13.9866 33.8411L32.7912 33.8411V8.63681L13.9866 8.63681V33.8411Z" fill="#00425F"/>
</g>
<path fill-rule="evenodd" clip-rule="evenodd" d="M53.3819 26.2433C53.9856 26.2433 54.4128 26.1822 54.6664 26.0678C54.9183 25.9522 55.0403 25.7257 55.0403 25.3945C55.0403 25.1327 54.8812 24.905 54.5547 24.7114C54.2284 24.5142 53.7374 24.295 53.0715 24.0452C52.5553 23.8565 52.0856 23.6618 51.6623 23.4608C51.2444 23.2563 50.8862 23.0176 50.5904 22.7338C50.2956 22.4514 50.0675 22.1127 49.9029 21.7182C49.7384 21.3309 49.6603 20.8622 49.6603 20.3092C49.6603 19.2387 50.0675 18.3899 50.8782 17.7677C51.6901 17.1479 52.8022 16.8313 54.2218 16.8313C54.9316 16.8313 55.6109 16.8934 56.2611 17.0189C56.9099 17.1406 57.4288 17.2795 57.8094 17.4195L57.2349 19.9401C56.8502 19.8098 56.4323 19.6954 55.9825 19.5956C55.5326 19.4934 55.0259 19.4397 54.4659 19.4397C53.4323 19.4397 52.9148 19.7247 52.9148 20.2885C52.9148 20.4187 52.9374 20.5345 52.9825 20.6355C53.0275 20.7379 53.1153 20.8353 53.2454 20.929C53.3819 21.0216 53.5598 21.1262 53.7905 21.2335C54.0199 21.3467 54.3119 21.4635 54.6664 21.5963C55.3867 21.8593 55.9851 22.1151 56.4575 22.3734C56.9311 22.6314 57.3026 22.9032 57.5773 23.2049C57.8506 23.4998 58.0444 23.8262 58.1531 24.1889C58.262 24.5507 58.3189 24.9683 58.3189 25.4445C58.3189 26.5733 57.8864 27.4268 57.0253 28.0041C56.1602 28.5789 54.9368 28.8687 53.3566 28.8687C52.3243 28.8687 51.4646 28.7847 50.7786 28.6082C50.0901 28.4365 49.615 28.2881 49.3498 28.1734L49.9029 25.5455C50.4616 25.7623 51.0428 25.9303 51.6293 26.0571C52.2237 26.1813 52.8022 26.2433 53.3819 26.2433Z" fill="#00425F"/>
<mask id="mask3_1_424" style="mask-type:alpha" maskUnits="userSpaceOnUse" x="49" y="16" width="10" height="13">
<path d="M50.8782 17.7679C51.6904 17.1479 52.8022 16.8313 54.2218 16.8313C54.9319 16.8313 55.6111 16.8934 56.2613 17.0189C56.9099 17.1406 57.4288 17.2793 57.8096 17.4195L57.2351 19.9401C56.8502 19.8098 56.4325 19.6954 55.9825 19.5956C55.5328 19.4932 55.0259 19.4399 54.4661 19.4399C53.4323 19.4399 52.915 19.7245 52.915 20.2885C52.915 20.4187 52.9374 20.5345 52.9825 20.6355C53.0278 20.7379 53.1155 20.8353 53.2456 20.929C53.3819 21.0216 53.56 21.1262 53.7907 21.2335C54.0201 21.3465 54.3119 21.4637 54.6664 21.5963C55.3869 21.8593 55.9853 22.1151 56.4575 22.3733C56.9313 22.6314 57.3028 22.903 57.5776 23.2049C57.8508 23.4998 58.0444 23.826 58.1533 24.1889C58.2622 24.5507 58.3189 24.9683 58.3189 25.4445C58.3189 26.5733 57.8864 27.427 57.0255 28.0041C56.1604 28.5789 54.937 28.8687 53.3568 28.8687C52.3246 28.8687 51.4648 28.7847 50.7789 28.6082C50.0901 28.4365 49.6153 28.2881 49.3498 28.1734L49.9031 25.5455C50.4618 25.7625 51.0428 25.9303 51.6293 26.0571C52.2236 26.1811 52.8022 26.2433 53.3819 26.2433C53.9856 26.2433 54.413 26.1824 54.6664 26.0678C54.9185 25.9522 55.0406 25.7257 55.0406 25.3945C55.0406 25.1327 54.8814 24.905 54.5549 24.7114C54.2284 24.5142 53.7374 24.295 53.0715 24.0452C52.5553 23.8565 52.0859 23.6618 51.6623 23.4608C51.2446 23.2563 50.8862 23.0176 50.5906 22.7338C50.2958 22.4512 50.0677 22.1127 49.9031 21.7182C49.7386 21.3307 49.6603 20.8622 49.6603 20.3092C49.6603 19.2389 50.0677 18.3901 50.8782 17.7679Z" fill="white"/>
</mask>
<g mask="url(#mask3_1_424)">
<path fill-rule="evenodd" clip-rule="evenodd" d="M-159.474 60.6628L305.608 60.6628V-543.138L-159.474 -543.138V60.6628Z" fill="#00425F"/>
<path fill-rule="evenodd" clip-rule="evenodd" d="M43.8138 33.9424L63.8565 33.9424V11.757L43.8138 11.757V33.9424Z" fill="#00425F"/>
</g>
<path fill-rule="evenodd" clip-rule="evenodd" d="M68.4926 22.004C68.1968 23.105 67.8849 24.2009 67.552 25.2847C67.2201 26.3722 66.8671 27.4658 66.5025 28.5665L63.9325 28.5665C63.6657 27.9577 63.3753 27.2344 63.0647 26.3953C62.7514 25.5526 62.4318 24.6381 62.0961 23.6433C61.7642 22.6518 61.4248 21.6023 61.077 20.4916C60.7281 19.386 60.3897 18.268 60.066 17.1367L63.545 17.1367C63.6603 17.6566 63.7917 18.2279 63.9336 18.8427C64.0744 19.4589 64.2229 20.0934 64.3782 20.7462C64.5335 21.3965 64.6993 22.0503 64.869 22.7103C65.0402 23.3703 65.2155 24.0023 65.393 24.6102C65.5856 23.9733 65.774 23.3229 65.9584 22.6567C66.1402 21.9896 66.3194 21.3343 66.4904 20.6902C66.659 20.0472 66.8249 19.4225 66.976 18.821C67.13 18.2204 67.2667 17.6566 67.3875 17.1367L69.777 17.1367C69.899 17.6566 70.0276 18.2204 70.1774 18.821C70.3234 19.4225 70.4789 20.0472 70.6434 20.6902C70.8026 21.3343 70.9764 21.9896 71.1502 22.6567C71.3292 23.3229 71.5124 23.9733 71.7022 24.6102C71.8812 24.0023 72.0591 23.3703 72.2381 22.7103C72.4173 22.0503 72.5857 21.3965 72.7396 20.7462C72.8936 20.0934 73.0422 19.4589 73.1856 18.8427C73.3275 18.2279 73.4562 17.6566 73.5742 17.1367L77.008 17.1367C76.6818 18.268 76.346 19.386 75.9971 20.4916C75.6454 21.6023 75.3096 22.6518 74.9741 23.6433C74.6435 24.6381 74.3173 25.5526 74.0001 26.3953C73.6805 27.2344 73.3857 27.9577 73.1233 28.5665L70.5533 28.5665C70.1815 27.4658 69.8207 26.3722 69.4652 25.2847C69.1108 24.2009 68.7898 23.105 68.4926 22.004Z" fill="#00425F"/>
<mask id="mask4_1_424" style="mask-type:alpha" maskUnits="userSpaceOnUse" x="60" y="17" width="18" height="12">
<path d="M73.5742 17.1367L77.008 17.1367C76.6818 18.268 76.346 19.386 75.9969 20.4914C75.6454 21.6023 75.3096 22.652 74.9739 23.6433C74.6435 24.6381 74.3173 25.5526 73.9998 26.3953C73.6803 27.2344 73.3857 27.9575 73.1231 28.5665L70.553 28.5665C70.1815 27.4658 69.8207 26.372 69.4652 25.2845C69.1108 24.2009 68.7898 23.105 68.4926 22.004C68.1965 23.105 67.8847 24.2009 67.552 25.2845C67.2201 26.372 66.8671 27.4658 66.5023 28.5665L63.9323 28.5665C63.6655 27.9575 63.375 27.2344 63.0645 26.3953C62.7514 25.5526 62.4316 24.6381 62.0961 23.6433C61.7642 22.652 61.4246 21.6023 61.077 20.4914C60.7281 19.386 60.3897 18.268 60.066 17.1367L63.5447 17.1367C63.6603 17.6566 63.7917 18.2277 63.9336 18.8427C64.0744 19.4589 64.2227 20.0934 64.3782 20.746C64.5332 21.3963 64.6993 22.0503 64.869 22.7103C65.0402 23.3703 65.2155 24.0023 65.393 24.6102C65.5853 23.9733 65.7738 23.3227 65.9582 22.6567C66.14 21.9896 66.3194 21.3343 66.4904 20.6902C66.6588 20.047 66.8246 19.4223 66.976 18.821C67.13 18.2204 67.2667 17.6566 67.3873 17.1367L69.777 17.1367C69.8988 17.6566 70.0275 18.2204 70.1774 18.821C70.3234 19.4223 70.4789 20.047 70.6432 20.6902C70.8026 21.3343 70.9761 21.9896 71.1502 22.6567C71.3292 23.3227 71.5124 23.9733 71.702 24.6102C71.8812 24.0023 72.0589 23.3703 72.2381 22.7103C72.4173 22.0503 72.5857 21.3963 72.7396 20.746C72.8936 20.0934 73.0422 19.4589 73.1854 18.8427C73.3275 18.2277 73.4562 17.6566 73.5742 17.1367Z" fill="white"/>
</mask>
<g mask="url(#mask4_1_424)">
<path fill-rule="evenodd" clip-rule="evenodd" d="M-159.475 60.663L305.607 60.663V-543.138L-159.475 -543.138V60.663Z" fill="#00425F"/>
<path fill-rule="evenodd" clip-rule="evenodd" d="M54.5288 33.6407L82.5442 33.6407V12.0629L54.5288 12.0629V33.6407Z" fill="#00425F"/>
</g>
<path fill-rule="evenodd" clip-rule="evenodd" d="M79.3414 28.5618L82.6373 28.5618V17.1343L79.3414 17.1343V28.5618Z" fill="#00425F"/>
<mask id="mask5_1_424" style="mask-type:alpha" maskUnits="userSpaceOnUse" x="79" y="17" width="4" height="12">
<path d="M79.3414 28.5625V17.1351L82.6375 17.1351V28.5625L79.3414 28.5625Z" fill="white"/>
</mask>
<g mask="url(#mask5_1_424)">
<path fill-rule="evenodd" clip-rule="evenodd" d="M-159.476 60.6628L305.606 60.6628V-543.138L-159.476 -543.138V60.6628Z" fill="#00425F"/>
<path fill-rule="evenodd" clip-rule="evenodd" d="M73.8042 33.6359L88.1734 33.6359V12.0604L73.8042 12.0604V33.6359Z" fill="#00425F"/>
</g>
<path fill-rule="evenodd" clip-rule="evenodd" d="M85.2588 14.2846L88.5572 13.7111V17.1402L91.8214 17.1402V19.829L88.5572 19.829V23.8501C88.5572 24.5307 88.6793 25.0789 88.9221 25.4795C89.1649 25.885 89.657 26.0883 90.3936 26.0883C90.7505 26.0883 91.1167 26.0591 91.4908 25.9921C91.8688 25.9263 92.2113 25.8326 92.5231 25.7194L92.9863 28.2402C92.5867 28.4006 92.1422 28.5372 91.6581 28.654C91.1682 28.7684 90.5754 28.8269 89.864 28.8269C88.962 28.8269 88.2176 28.7077 87.6272 28.4665C87.0355 28.2315 86.563 27.8991 86.2102 27.4679C85.8572 27.0442 85.6105 26.5217 85.4686 25.9166C85.3252 25.3065 85.2588 24.6319 85.2588 23.895V14.2846Z" fill="#00425F"/>
<mask id="mask6_1_424" style="mask-type:alpha" maskUnits="userSpaceOnUse" x="85" y="13" width="8" height="16">
<path d="M85.2588 14.285L88.557 13.7115V17.1405L91.8211 17.1405V19.8293L88.557 19.8293V23.8505C88.557 24.5311 88.6793 25.079 88.9221 25.4798C89.1649 25.8853 89.657 26.0885 90.3934 26.0885C90.7503 26.0885 91.1166 26.0594 91.4908 25.9924C91.8688 25.9264 92.2112 25.833 92.5228 25.7197L92.986 28.2403C92.5867 28.401 92.142 28.5376 91.6581 28.6544C91.1682 28.7688 90.5754 28.8273 89.864 28.8273C88.962 28.8273 88.2174 28.7081 87.6272 28.4668C87.0352 28.2316 86.563 27.8995 86.2102 27.4684C85.8572 27.0446 85.6105 26.5223 85.4684 25.917C85.3252 25.3069 85.2588 24.632 85.2588 23.8955V14.285Z" fill="white"/>
</mask>
<g mask="url(#mask6_1_424)">
<path fill-rule="evenodd" clip-rule="evenodd" d="M-159.476 60.663L305.606 60.663V-543.138L-159.476 -543.138V60.663Z" fill="#00425F"/>
<path fill-rule="evenodd" clip-rule="evenodd" d="M79.7219 33.9011L98.5228 33.9011V8.63717L79.7219 8.63717V33.9011Z" fill="#00425F"/>
</g>
<path fill-rule="evenodd" clip-rule="evenodd" d="M94.1518 22.8544C94.1518 22.0273 94.2888 21.2481 94.562 20.5175C94.8352 19.7844 95.2294 19.1488 95.7456 18.6044C96.263 18.0601 96.8892 17.6313 97.6295 17.3112C98.3659 16.9958 99.2071 16.8325 100.152 16.8325C100.771 16.8325 101.341 16.8898 101.858 16.9969C102.376 17.1078 102.88 17.2625 103.364 17.4633L102.68 20.0487C102.368 19.9341 102.029 19.8343 101.658 19.7442C101.289 19.6589 100.874 19.614 100.417 19.614C99.4434 19.614 98.7148 19.9122 98.2384 20.5064C97.7541 21.1021 97.518 21.8826 97.518 22.8544C97.518 23.8808 97.7422 24.6784 98.1962 25.2436C98.6419 25.8073 99.4301 26.0911 100.551 26.0911C100.951 26.0911 101.376 26.0532 101.837 25.9814C102.293 25.9083 102.714 25.7939 103.101 25.6332L103.563 28.2855C103.178 28.445 102.701 28.5789 102.125 28.6969C101.546 28.8117 100.913 28.8712 100.221 28.8712C99.1579 28.8712 98.2399 28.7129 97.4742 28.4023C96.7076 28.0918 96.0745 27.6679 95.5809 27.1322C95.0834 26.5953 94.7252 25.9621 94.4958 25.2313C94.2661 24.4995 94.1518 23.7057 94.1518 22.8544Z" fill="#00425F"/>
<mask id="mask7_1_424" style="mask-type:alpha" maskUnits="userSpaceOnUse" x="94" y="16" width="10" height="13">
<path d="M97.6295 17.3112C98.3659 16.9958 99.2071 16.8325 100.152 16.8325C100.771 16.8325 101.341 16.8896 101.858 16.9967C102.375 17.1078 102.88 17.2623 103.364 17.4633L102.68 20.0486C102.367 19.9341 102.029 19.8343 101.658 19.7442C101.289 19.6587 100.874 19.6138 100.417 19.6138C99.4434 19.6138 98.7148 19.9122 98.2384 20.5064C97.7541 21.1019 97.518 21.8824 97.518 22.8544C97.518 23.8808 97.7425 24.6784 98.1962 25.2436C98.6419 25.8073 99.4298 26.0911 100.551 26.0911C100.951 26.0911 101.376 26.0532 101.837 25.9814C102.293 25.9083 102.714 25.7939 103.101 25.633L103.563 28.2855C103.178 28.445 102.701 28.5787 102.125 28.6969C101.546 28.8115 100.913 28.8712 100.221 28.8712C99.1577 28.8712 98.2399 28.7127 97.4742 28.4021C96.7076 28.0916 96.0745 27.6679 95.5807 27.1324C95.0836 26.5953 94.7252 25.9621 94.4958 25.2313C94.2661 24.4995 94.1518 23.7055 94.1518 22.8544C94.1518 22.0273 94.2888 21.2481 94.562 20.5175C94.8352 19.7844 95.2294 19.1486 95.7454 18.6042C96.263 18.0599 96.8892 17.6313 97.6295 17.3112Z" fill="white"/>
</mask>
<g mask="url(#mask7_1_424)">
<path fill-rule="evenodd" clip-rule="evenodd" d="M-159.475 60.663L305.607 60.663V-543.138L-159.475 -543.138V60.663Z" fill="#00425F"/>
<path fill-rule="evenodd" clip-rule="evenodd" d="M88.6154 33.9454L109.1 33.9454V11.7586L88.6154 11.7586V33.9454Z" fill="#00425F"/>
</g>
<path fill-rule="evenodd" clip-rule="evenodd" d="M105.695 28.5625V14.2806L108.995 13.7121V17.1827C109.215 17.1107 109.498 17.0414 109.849 16.9757C110.193 16.9111 110.532 16.8769 110.856 16.8769C111.799 16.8769 112.583 17.0048 113.212 17.257C113.838 17.5103 114.344 17.8696 114.718 18.3334C115.097 18.795 115.36 19.3478 115.518 19.9823C115.67 20.6214 115.747 21.3328 115.747 22.1146V28.5625L112.449 28.5625V22.5029C112.449 21.4605 112.312 20.7226 112.04 20.2855C111.767 19.8554 111.26 19.6377 110.524 19.6377C110.224 19.6377 109.95 19.6633 109.69 19.712C109.433 19.7631 109.201 19.8191 108.995 19.8764V28.5625L105.695 28.5625Z" fill="#00425F"/>
<mask id="mask8_1_424" style="mask-type:alpha" maskUnits="userSpaceOnUse" x="105" y="13" width="11" height="16">
<path d="M105.695 14.2806L108.995 13.7121V17.1829C109.215 17.1107 109.498 17.0414 109.849 16.9757C110.193 16.9111 110.532 16.8771 110.856 16.8771C111.799 16.8771 112.583 17.005 113.212 17.257C113.838 17.5105 114.344 17.8696 114.718 18.3336C115.097 18.795 115.36 19.3478 115.518 19.9825C115.67 20.6216 115.747 21.3328 115.747 22.1148V28.5625L112.449 28.5625V22.5029C112.449 21.4607 112.312 20.7226 112.04 20.2855C111.767 19.8556 111.26 19.6377 110.524 19.6377C110.224 19.6377 109.95 19.6633 109.69 19.7122C109.433 19.7631 109.201 19.8191 108.995 19.8764V28.5625L105.695 28.5625V14.2806Z" fill="white"/>
</mask>
<g mask="url(#mask8_1_424)">
<path fill-rule="evenodd" clip-rule="evenodd" d="M-159.475 60.6628L305.607 60.6628V-543.138L-159.475 -543.138V60.6628Z" fill="#00425F"/>
<path fill-rule="evenodd" clip-rule="evenodd" d="M100.159 33.6366L121.284 33.6366V8.63796L100.159 8.63796V33.6366Z" fill="#00425F"/>
</g>
<path fill-rule="evenodd" clip-rule="evenodd" d="M6.2121 28.5665L6.2121 18.2107C6.2121 18.2107 7.87058 16.9114 11.4981 16.9114C14.7991 16.9114 16.6118 18.5299 16.6118 22.0917V28.5665L13.3146 28.5665V22.0917C13.3146 19.8231 12.1575 19.666 11.169 19.666C10.1805 19.666 9.51851 20.1482 9.51851 20.1482V28.5665L6.2121 28.5665Z" fill="#00425F"/>
<mask id="mask9_1_424" style="mask-type:alpha" maskUnits="userSpaceOnUse" x="6" y="16" width="11" height="13">
<path d="M6.2121 18.2107C6.2121 18.2107 7.87058 16.9114 11.4981 16.9114C14.7991 16.9114 16.6116 18.5297 16.6116 22.0919V28.5665L13.3146 28.5665V22.0919C13.3146 19.8229 12.1575 19.666 11.169 19.666C10.1805 19.666 9.51851 20.1484 9.51851 20.1484V28.5665L6.2121 28.5665V18.2107Z" fill="white"/>
</mask>
<g mask="url(#mask9_1_424)">
<path fill-rule="evenodd" clip-rule="evenodd" d="M-159.475 60.6633L305.607 60.6633V-543.138L-159.475 -543.138V60.6633Z" fill="#00425F"/>
<path fill-rule="evenodd" clip-rule="evenodd" d="M0.676147 33.6407L22.1488 33.6407V11.8377L0.676147 11.8377L0.676147 33.6407Z" fill="#00425F"/>
</g>
<path fill-rule="evenodd" clip-rule="evenodd" d="M0 28.5665L0 14.2822L3.30105 13.7122L3.30105 28.5665L0 28.5665Z" fill="#00425F"/>
<mask id="mask10_1_424" style="mask-type:alpha" maskUnits="userSpaceOnUse" x="0" y="13" width="4" height="16">
<path d="M0 14.2824L3.30105 13.7122V28.5665L0 28.5665L0 14.2824Z" fill="white"/>
</mask>
<g mask="url(#mask10_1_424)">
<path fill-rule="evenodd" clip-rule="evenodd" d="M-159.476 60.6633L305.606 60.6633V-543.137L-159.476 -543.137V60.6633Z" fill="#00425F"/>
<path fill-rule="evenodd" clip-rule="evenodd" d="M-5.53693 33.6407L8.83764 33.6407V8.63856L-5.53693 8.63856V33.6407Z" fill="#00425F"/>
</g>
<path fill-rule="evenodd" clip-rule="evenodd" d="M38.9798 23.6731L31.5548 23.6731C31.5548 23.6731 31.7206 26.1001 35.0178 26.1001C36.6685 26.1001 38.3191 25.6165 38.3191 25.6165L38.6494 28.2091C38.6494 28.2091 37.0002 28.851 34.6915 28.851C31.389 28.851 28.4196 27.2348 28.4196 22.7038C28.4196 19.1406 30.7283 16.8781 34.0282 16.8781C38.9798 16.8781 39.3114 21.727 38.9798 23.6731ZM33.8663 19.1406C31.7206 19.1406 31.5548 21.4055 31.5548 21.4055L36.1721 21.4055C36.1721 21.4055 36.0104 19.1406 33.8663 19.1406Z" fill="#00425F"/>
<mask id="mask11_1_424" style="mask-type:alpha" maskUnits="userSpaceOnUse" x="28" y="16" width="12" height="13">
<path d="M28.4196 22.7036C28.4196 19.1404 30.7283 16.8779 34.028 16.8779C38.9796 16.8779 39.3112 21.727 38.9796 23.6729L31.5548 23.6729C31.5548 23.6729 31.7206 26.0999 35.0176 26.0999C36.6683 26.0999 38.3188 25.6163 38.3188 25.6163L38.6492 28.2089C38.6492 28.2089 37 28.851 34.6913 28.851C31.389 28.851 28.4196 27.2348 28.4196 22.7036ZM33.8661 19.1404C31.7206 19.1404 31.5548 21.4055 31.5548 21.4055L36.1721 21.4055C36.1721 21.4055 36.0102 19.1404 33.8661 19.1404Z" fill="white"/>
</mask>
<g mask="url(#mask11_1_424)">
<path fill-rule="evenodd" clip-rule="evenodd" d="M-159.476 60.6631L305.606 60.6631V-543.138L-159.476 -543.138V60.6631Z" fill="#00425F"/>
<path fill-rule="evenodd" clip-rule="evenodd" d="M22.8824 33.9249L44.6081 33.9249V11.804L22.8824 11.804V33.9249Z" fill="#00425F"/>
</g>
<mask id="mask12_1_424" style="mask-type:alpha" maskUnits="userSpaceOnUse" x="120" y="11" width="22" height="27">
<path d="M120.12 13.7148C120.12 13.0243 129.611 11.5342 135.975 11.5342C138.736 11.5342 140.908 11.8145 141.463 12.5615C144.329 16.0297 124.154 37.7884 122.473 37.1284C121.125 36.7983 133.229 22.9489 131.211 17.3412C130.204 14.376 120.12 14.7058 120.12 13.7148Z" fill="white"/>
</mask>
<g mask="url(#mask12_1_424)">
<path fill-rule="evenodd" clip-rule="evenodd" d="M114.584 42.2167L147.279 42.2167V6.45986L114.584 6.45986V42.2167Z" fill="#ED342B"/>
</g>
<mask id="mask13_1_424" style="mask-type:alpha" maskUnits="userSpaceOnUse" x="137" y="0" width="9" height="10">
<path d="M137.261 5.14224C137.261 2.77379 139.219 0.857094 141.631 0.857094C144.045 0.857094 146 2.77379 146 5.14224C146 7.51189 144.045 9.42859 141.631 9.42859C139.219 9.42859 137.261 7.51189 137.261 5.14224Z" fill="white"/>
</mask>
<g mask="url(#mask13_1_424)">
<path fill-rule="evenodd" clip-rule="evenodd" d="M131.724 14.5029L151.536 14.5029V-4.21684L131.724 -4.21684V14.5029Z" fill="#ED342B"/>
</g>
</svg>
