<?xml version="1.0" encoding="iso-8859-1"?>
<!-- Uploaded to: SVG Repo, www.svgrepo.com, Generator: SVG Repo Mixer Tools -->
<!DOCTYPE svg PUBLIC "-//W3C//DTD SVG 1.1//EN" "http://www.w3.org/Graphics/SVG/1.1/DTD/svg11.dtd">
<svg fill="#000000" version="1.1" id="Capa_1" xmlns="http://www.w3.org/2000/svg" xmlns:xlink="http://www.w3.org/1999/xlink" 
	 width="800px" height="800px" viewBox="0 0 30.414 30.413"
	 xml:space="preserve">
<g>
	<g>
		<path d="M20.107,0H5.05v30.37l20.312,0.043V5.239L20.107,0z M24.072,29.121L6.34,29.083V1.29h12.412v5.829h5.319V29.121z
			 M24.072,5.829h-4.03V1.756l4.03,4.018V5.829z"/>
		<rect x="15.546" y="9.375" width="6.52" height="1.129"/>
		<rect x="15.546" y="11.551" width="6.52" height="1.128"/>
		<rect x="8.645" y="13.889" width="13.419" height="1.128"/>
		<rect x="8.645" y="16.064" width="13.419" height="1.129"/>
		<rect x="8.645" y="18.12" width="13.419" height="1.128"/>
		<rect x="8.645" y="20.297" width="13.419" height="1.128"/>
		<rect x="8.645" y="22.634" width="13.419" height="1.128"/>
		<rect x="8.645" y="24.811" width="13.419" height="1.127"/>
		<circle cx="11.559" cy="6.222" r="2.212"/>
		<polygon points="14.196,8.767 13.774,8.767 13.23,8.767 12.413,8.767 11.597,9.745 10.754,8.767 9.892,8.767 9.277,8.767 
			8.802,8.767 8.645,12.679 14.307,12.679 		"/>
	</g>
</g>
</svg>