<svg width="56" height="56" viewBox="0 0 56 56" fill="none" xmlns="http://www.w3.org/2000/svg">
<g clip-path="url(#clip0_1_252)">
<path d="M52.5 18.375H17.5C16.0453 18.375 14.875 19.5453 14.875 21V41.125H55.125V21C55.125 19.5453 53.9547 18.375 52.5 18.375Z" fill="#B7E3EE"/>
<path d="M14.875 45.5C14.875 46.9547 16.0453 48.125 17.5 48.125H43.75V45.5C43.75 45.0187 44.1437 44.625 44.625 44.625C45.1063 44.625 45.5 45.0187 45.5 45.5V48.125H48.125V45.5C48.125 45.0187 48.5187 44.625 49 44.625C49.4813 44.625 49.875 45.0187 49.875 45.5V48.125H52.5C53.9547 48.125 55.125 46.9547 55.125 45.5V42.875H14.875V45.5Z" fill="#B7E3EE"/>
<path d="M44.625 53.375C43.1703 53.375 42 52.2047 42 50.75V49.875H28V50.75C28 52.2047 26.8297 53.375 25.375 53.375C24.8937 53.375 24.5 53.7687 24.5 54.25C24.5 54.7312 24.8937 55.125 25.375 55.125H44.625C45.1063 55.125 45.5 54.7312 45.5 54.25C45.5 53.7687 45.1063 53.375 44.625 53.375Z" fill="#B7E3EE"/>
<path d="M37.0782 7.94063L19.5782 0.940625C19.3704 0.853125 19.1407 0.853125 18.922 0.940625L1.42196 7.94063C1.09383 8.07188 0.875082 8.4 0.875082 8.75V15.4328C0.831332 27.7703 7.80946 39.0578 18.8563 44.5375C19.1079 44.6578 19.3923 44.6578 19.6438 44.5375C30.6907 39.0578 37.6688 27.7703 37.6251 15.4328V8.75C37.6251 8.38906 37.4063 8.07188 37.0782 7.94063ZM35.8751 15.4328C35.9188 26.95 29.4876 37.5047 19.2501 42.7656C9.01258 37.5047 2.58133 26.95 2.62508 15.4328V9.34063L19.2501 2.69063L35.8751 9.34063V15.4328Z" fill="#04435F"/>
<path d="M19.2501 4.375C18.9001 4.375 18.5938 4.58281 18.4516 4.9L4.92194 10.3031C4.59381 10.4344 4.37506 10.7625 4.37506 11.1125V15.4219C4.30944 25.7797 9.82194 35.3719 18.8126 40.5234C19.086 40.6766 19.4141 40.6766 19.6876 40.5234C28.6782 35.3719 34.1907 25.7797 34.1251 15.4219V11.1125C34.1251 10.7516 33.9063 10.4344 33.5782 10.3031L20.0485 4.9C19.9063 4.58281 19.6001 4.375 19.2501 4.375ZM6.12506 11.7141L18.3751 6.81406V18.375H6.28912C6.17975 17.4016 6.12506 16.4172 6.12506 15.4328V11.7141ZM6.52975 20.125H18.3751V38.1938C12.0751 34.0922 7.77662 27.5406 6.52975 20.125ZM20.1251 38.1938V20.125H31.9704C30.7235 27.5406 26.4251 34.0922 20.1251 38.1938ZM32.3751 15.4328C32.3751 16.4172 32.3204 17.4016 32.211 18.375H20.1251V6.81406L32.3751 11.7141V15.4328Z" fill="#04435F"/>
</g>
<defs>
<clipPath id="clip0_1_252">
<rect width="56" height="56" fill="white"/>
</clipPath>
</defs>
</svg>
