<svg width="134" height="134" viewBox="0 0 134 134" fill="none" xmlns="http://www.w3.org/2000/svg">
<rect y="0.891113" width="134" height="132.218" rx="66.109" fill="#E5F5FA"/>
<path fill-rule="evenodd" clip-rule="evenodd" d="M82.3374 38.0836C84.954 38.7256 85.4765 39.2438 86.1152 41.862C86.7577 39.2438 87.2764 38.7101 89.9007 38.0836C87.2841 37.4416 86.7655 36.9234 86.1229 34.3052C85.4843 36.9234 84.9617 37.4416 82.3451 38.0836" fill="#F5C26B"/>
<path fill-rule="evenodd" clip-rule="evenodd" d="M77.4878 32.3561C78.8271 32.6848 79.0941 32.9516 79.4231 34.2897C79.7521 32.9478 80.0192 32.6809 81.3585 32.3561C80.0192 32.0273 79.7521 31.7643 79.4231 30.4224C79.0941 31.7643 78.8271 32.0273 77.4878 32.3561Z" fill="#F2547D"/>
<path fill-rule="evenodd" clip-rule="evenodd" d="M87.9658 32.3558C89.8625 32.8277 90.2418 33.2105 90.7024 35.1403C91.1669 33.2067 91.5462 32.8199 93.439 32.3558C91.5269 31.8956 91.1475 31.5089 90.6753 29.5752C90.2186 31.5089 89.8431 31.8956 87.9658 32.3558Z" fill="#7FD1DE" fill-opacity="0.5"/>
<path d="M37.118 52.8057C37.0345 52.8501 36.9645 52.9162 36.9157 52.9971C36.8668 53.078 36.8409 53.1706 36.8406 53.265C35.8985 99.3222 64.5077 98.6332 65.5178 98.4766C66.4338 98.3409 92.3474 83.9402 97.3354 81.1634C97.4185 81.1187 97.4879 81.0524 97.5363 80.9715C97.5847 80.8907 97.6102 80.7983 97.6102 80.7041C97.6102 80.6099 97.5847 80.5175 97.5363 80.4367C97.4879 80.3558 97.4185 80.2895 97.3354 80.2448C92.8394 77.5828 71.3171 63.2395 73.7352 33.5978C73.7498 33.4997 73.736 33.3995 73.6955 33.3089C73.6549 33.2183 73.5894 33.1411 73.5064 33.0863C73.4235 33.0315 73.3266 33.0014 73.2272 32.9996C73.1277 32.9978 73.0298 33.0242 72.9449 33.0759L37.118 52.8057Z" fill="white" stroke="#33475C" stroke-width="2.35" stroke-linejoin="round"/>
<path fill-rule="evenodd" clip-rule="evenodd" d="M76.6322 78.3833C76.065 78.3833 75.5065 78.2337 75.0141 77.9511L72.6413 76.5807H69.9024C68.7495 76.5807 67.6753 75.9591 67.0984 74.9635L65.7289 72.5878L63.3562 71.2184C62.3587 70.6453 61.7381 69.5702 61.7381 68.4163V65.6754L60.3686 63.3037C59.7917 62.3023 59.7927 61.0639 60.3667 60.0684L61.7381 57.6937V54.9538C61.7381 53.798 62.3597 52.7238 63.3601 52.1498L65.7299 50.7803L67.0974 48.4085C67.6753 47.4081 68.7495 46.7904 69.9014 46.7904H72.6413L75.0131 45.42C75.5046 45.1374 76.065 44.9868 76.6322 44.9868C77.1994 44.9868 77.7589 45.1374 78.2513 45.421L80.6231 46.7904H83.363C84.5168 46.7904 85.592 47.4111 86.167 48.4124L87.5335 50.7813L89.9083 52.1508C90.9057 52.7238 91.5254 53.799 91.5254 54.9538V57.6927L92.8978 60.0674C93.4728 61.063 93.4728 62.3042 92.8978 63.3046L91.5283 65.6745V68.4134C91.5283 69.5682 90.9067 70.6444 89.9063 71.2184L87.5365 72.5869L86.167 74.9606C85.5891 75.9591 84.5159 76.5797 83.363 76.5797H80.6241L78.2513 77.9492C77.7637 78.2308 77.2023 78.3823 76.6322 78.3823" fill="#00BEA5"/>
<path d="M76.6322 78.3833C76.065 78.3833 75.5065 78.2337 75.0141 77.9511L72.6413 76.5807H69.9024C68.7495 76.5807 67.6753 75.9591 67.0984 74.9635L65.7289 72.5878L63.3562 71.2184C62.3587 70.6453 61.7381 69.5702 61.7381 68.4163V65.6754L60.3686 63.3037C59.7917 62.3023 59.7927 61.0639 60.3667 60.0684L61.7381 57.6937V54.9538C61.7381 53.798 62.3597 52.7238 63.3601 52.1498L65.7299 50.7803L67.0974 48.4085C67.6753 47.4081 68.7495 46.7904 69.9014 46.7904H72.6413L75.0131 45.42C75.5046 45.1374 76.065 44.9868 76.6322 44.9868C77.1994 44.9868 77.7589 45.1374 78.2513 45.421L80.6231 46.7904H83.363C84.5168 46.7904 85.592 47.4111 86.167 48.4124L87.5335 50.7813L89.9083 52.1508C90.9057 52.7238 91.5254 53.799 91.5254 54.9538V57.6927L92.8978 60.0674C93.4728 61.063 93.4728 62.3042 92.8978 63.3046L91.5283 65.6745V68.4134C91.5283 69.5682 90.9067 70.6444 89.9063 71.2184L87.5365 72.5869L86.167 74.9606C85.5891 75.9591 84.5159 76.5797 83.363 76.5797H80.6241L78.2513 77.9492C77.7637 78.2308 77.2023 78.3823 76.6322 78.3823" stroke="#33475C" stroke-width="3" stroke-linecap="round" stroke-linejoin="round"/>
<path fill-rule="evenodd" clip-rule="evenodd" d="M74.4726 68.4282C74.0744 68.4282 73.7015 68.2728 73.4208 67.9911L69.5455 64.1158C69.2648 63.8361 69.1094 63.4651 69.1094 63.0659C69.1094 62.6677 69.2648 62.2957 69.5445 62.014C70.1234 61.4352 71.0674 61.4352 71.6473 62.014L74.4726 64.8394L81.6191 57.6929C82.197 57.1141 83.1411 57.1131 83.7209 57.692C84.3017 58.2718 84.3017 59.2149 83.7219 59.7938L75.5245 67.9911C75.2467 68.2689 74.864 68.4282 74.4726 68.4282Z" fill="white"/>
</svg>
